<?xml version="1.0" standalone="no"?>
<!DOCTYPE svg PUBLIC "-//W3C//DTD SVG 20010904//EN"
 "http://www.w3.org/TR/2001/REC-SVG-20010904/DTD/svg10.dtd">
<svg version="1.0" xmlns="http://www.w3.org/2000/svg"
 width="812.000000pt" height="1280.000000pt" viewBox="0 0 812.000000 1280.000000"
 preserveAspectRatio="xMidYMid meet">
<g transform="translate(0.000000,1280.000000) scale(0.100000,-0.100000)"
fill="#000000" stroke="none">
<path d="M3860 12794 c-121 -23 -245 -85 -335 -167 l-60 -54 -56 28 c-169 86
-386 74 -546 -30 -32 -21 -73 -52 -92 -69 -30 -29 -39 -32 -95 -32 -209 -1
-402 -123 -497 -315 l-44 -89 0 -137 0 -137 -55 -12 c-118 -26 -231 -113 -285
-220 -29 -58 -55 -162 -55 -227 0 -30 -4 -43 -14 -43 -28 0 -153 -71 -203
-115 -183 -161 -239 -465 -127 -688 14 -27 24 -50 22 -52 -2 -1 -35 -12 -73
-23 -278 -83 -396 -412 -243 -680 59 -104 169 -190 290 -228 l57 -17 -6 -78
c-18 -239 117 -443 344 -520 81 -28 228 -32 307 -10 40 12 51 12 54 2 10 -30
214 -325 292 -421 104 -129 336 -363 450 -454 133 -106 307 -219 440 -285 67
-34 116 -63 108 -65 -7 -2 -58 -14 -113 -26 -258 -57 -663 -184 -1007 -316
-141 -54 -178 -72 -178 -87 0 -10 -44 -62 -98 -115 -160 -159 -248 -285 -367
-527 -353 -716 -495 -1381 -531 -2495 -5 -147 -10 -201 -21 -219 l-15 -24 -16
34 c-26 54 -95 117 -137 125 -77 14 -135 -11 -183 -82 -20 -30 -32 -58 -58
-142 -3 -10 -14 -5 -38 16 -47 41 -95 55 -176 50 -109 -6 -174 -63 -222 -194
-18 -48 -22 -81 -23 -174 0 -100 4 -126 29 -202 l28 -87 -36 -60 c-121 -198
-216 -499 -258 -811 -16 -124 -16 -536 0 -660 76 -563 265 -1006 558 -1310
153 -158 304 -255 471 -302 101 -28 277 -31 373 -5 331 88 603 396 755 852
l37 110 246 315 247 315 1200 5 c660 3 1207 9 1216 13 13 7 43 -25 143 -154
69 -89 126 -170 126 -178 0 -9 -7 -65 -15 -126 -74 -556 129 -1001 523 -1145
595 -217 1442 306 1923 1187 293 539 378 1151 215 1553 -64 157 -193 315 -318
389 -251 147 -560 149 -900 6 -45 -19 -82 -34 -83 -32 -1 1 -7 171 -14 377
-36 1126 -93 1635 -245 2172 -109 387 -315 860 -463 1067 -82 114 -216 257
-315 337 -40 32 -80 65 -88 74 -8 10 -44 27 -80 40 -102 36 -262 102 -524 217
-132 58 -277 118 -321 134 -44 16 -87 32 -95 35 -9 4 8 15 45 28 479 182 942
653 1201 1223 28 61 38 74 52 68 104 -44 162 -58 242 -58 183 -1 346 94 445
258 113 189 104 422 -26 614 -28 40 -49 74 -47 75 165 74 252 182 279 343 24
145 -31 303 -145 417 -33 33 -60 63 -59 66 72 179 77 344 13 507 -25 66 -105
193 -131 209 -6 3 -35 -18 -65 -47 -30 -29 -54 -51 -54 -49 0 3 9 34 20 68 62
199 -30 412 -219 505 -58 28 -75 32 -148 32 l-83 0 -4 30 c-3 17 -7 68 -10
115 -7 111 -13 130 -40 130 -17 0 -109 -30 -166 -54 -11 -4 -24 11 -48 59 -43
83 -147 182 -235 224 -59 28 -100 40 -198 56 -33 5 -39 11 -77 88 -40 81 -132
197 -155 197 -11 -1 -96 -99 -107 -124 -3 -6 -18 -30 -33 -53 l-29 -42 -51 34
c-75 49 -153 68 -251 63 l-80 -5 -47 47 c-105 105 -235 159 -394 165 -55 2
-111 1 -125 -1z m1799 -7416 c75 -380 139 -796 166 -1068 14 -143 39 -689 32
-696 -2 -2 -35 36 -73 85 l-70 88 -2 232 c-2 355 -57 1281 -88 1486 -4 22 -4
38 -1 35 3 -3 19 -76 36 -162z"/>
</g>
</svg>
